# xmcd
# 
# Track frame offsets:
#     150
#     9417
#     22760
#     33455
#     45267
#     56292
#     75555
#     89282
#     102345
#     115060
# 
# Disc length: 1683
# 
# Revision: 2
# Processed by: cddbd v1.5.2PL0 Copyright (c) Steve Scherf et al.
# Submitted via: fre:ac v1.1beta1pre3
# 
DISCID=6106910a
DTITLE=Tammy Wynette - Super Hits Volume 2
DYEAR=1998
DGENRE=Country
TTITLE0=Your Good Girl's Gonna Go Bad
TTITLE1=Apartment #9
TTITLE2=Singing My Song
TTITLE3=He Loves Me All The Way
TTITLE4=Run, Woman, Run
TTITLE5=Bedtime Story
TTITLE6=Til I Can Make It On My Own
TTITLE7=Kids Say The Darndest Things
TTITLE8=Take Me To Your World
TTITLE9=The Ways To Love A Man
EXTD=YEAR: 1998 ID3G:   2
EXTT0=
EXTT1=
EXTT2=
EXTT3=
EXTT4=
EXTT5=
EXTT6=
EXTT7=
EXTT8=
EXTT9=
PLAYORDER=
